<svg xmlns="http://www.w3.org/2000/svg" width="601.715" height="213.129" viewBox="0 0 601.715 213.129">
  <g id="safewater-logo" transform="translate(-481.991 -107.854)">
    <g id="Group_2" data-name="Group 2" transform="translate(481.991 107.855)">
      <path id="Path_2" data-name="Path 2" d="M127.759,25.028c-18.062,0-24.77,9.289-24.77,19.094,0,28.383,57.282,16.514,57.282,50.573,0,17.03-11.869,26.835-33.543,26.835-16.514,0-26.319-7.741-32.511-17.546a1.6,1.6,0,0,1-.516-1.032,2.22,2.22,0,0,1,2.064-2.064,2.681,2.681,0,0,1,2.064,1.032c5.677,8.773,14.449,15.482,28.9,15.482,18.578,0,28.9-7.225,28.9-22.706,0-30.963-57.282-17.546-57.282-50.573,0-12.385,8.773-23.222,29.415-23.222,13.417,0,23.222,5.16,29.931,14.449a1.9,1.9,0,0,1,.516,1.548,2.22,2.22,0,0,1-2.064,2.064c-1.032,0-1.032-.516-1.548-1.032C149.433,31.737,142.725,25.028,127.759,25.028Z" transform="translate(-92.152 -20.9)" fill="#25e8e3"/>
      <path id="Path_3" data-name="Path 3" d="M143.9,87.771l-11.869,30.447c-.516,1.032-1.032,1.548-2.064,1.548A2.22,2.22,0,0,1,127.9,117.7c0-.516,0-1.032.516-1.032l37.156-93.921c.516-1.032,1.032-1.548,2.064-1.548s2.064.516,2.064,1.548l37.156,93.921a1.8,1.8,0,0,0,.516,1.032,2.361,2.361,0,0,1-2.58,2.064c-1.032,0-2.064-.516-2.064-1.548L190.858,88.287H143.9ZM167.12,27.909,145.446,83.642h43.348Z" transform="translate(50.137 -19.652)" fill="#25e8e3"/>
      <path id="Path_4" data-name="Path 4" d="M169.928,115.321a1.89,1.89,0,0,1-2.064,2.064,2.22,2.22,0,0,1-2.064-2.064V23.464a1.89,1.89,0,0,1,2.064-2.064h48.509a2.22,2.22,0,0,1,2.064,2.064,2.22,2.22,0,0,1-2.064,2.064H169.928V68.877h36.124a2.064,2.064,0,0,1,0,4.128H169.928Z" transform="translate(207.821 -18.82)" fill="#25e8e3"/>
      <path id="Path_5" data-name="Path 5" d="M201.264,117.9a2.22,2.22,0,0,1-2.064-2.064V23.464a1.89,1.89,0,0,1,2.064-2.064h48.509a2.22,2.22,0,0,1,2.064,2.064,2.22,2.22,0,0,1-2.064,2.064H203.328v41.8h36.123a2.064,2.064,0,1,1,0,4.128H203.328v42.832h47.993a2.064,2.064,0,0,1,0,4.128H201.264Z" transform="translate(346.781 -18.82)" fill="#25e8e3"/>
      <path id="Path_6" data-name="Path 6" d="M147.069,76.2l-15.482,55.217a8.387,8.387,0,0,1-7.741,5.677,7.288,7.288,0,0,1-7.225-5.16L93.916,55.037a4.652,4.652,0,0,1-.516-2.58,7.937,7.937,0,0,1,7.741-7.741,7.539,7.539,0,0,1,7.225,5.161l15.482,56.25,15.482-56.25a8.116,8.116,0,0,1,15.482,0l15.482,56.25,15.482-56.25A7.539,7.539,0,0,1,193,44.716a7.937,7.937,0,0,1,7.741,7.741,4.652,4.652,0,0,1-.516,2.58l-22.706,76.891a7.761,7.761,0,0,1-7.225,5.161,8.387,8.387,0,0,1-7.741-5.677Z" transform="translate(-93.4 76.04)" fill="#24adea"/>
      <path id="Path_7" data-name="Path 7" d="M146.822,111.487l-8.257,19.61a7.7,7.7,0,0,1-14.965-2.58c0-1.032,0-2.064.516-2.58L155.6,49.044A7.747,7.747,0,0,1,162.82,44.4c4.128,0,6.193,3.1,7.225,4.644l31.479,76.892a5.61,5.61,0,0,1,.516,2.58,7.937,7.937,0,0,1-7.741,7.741,7.288,7.288,0,0,1-7.225-5.161l-8.257-19.61h-32Zm16-42.316L151.983,97.553h22.19Z" transform="translate(32.247 76.872)" fill="#24adea"/>
      <path id="Path_8" data-name="Path 8" d="M190.532,57.917v69.667a7.741,7.741,0,1,1-15.482,0V57.917H154.409a6.709,6.709,0,1,1,0-13.417h56.766a6.709,6.709,0,1,1,0,13.417Z" transform="translate(132.515 77.288)" fill="#24adea"/>
      <path id="Path_9" data-name="Path 9" d="M189.382,82.172h25.286a6.709,6.709,0,0,1,0,13.417H189.382v24.77h35.607a7.225,7.225,0,0,1,0,14.449H181.641a7.937,7.937,0,0,1-7.741-7.741V52.241a7.937,7.937,0,0,1,7.741-7.741h41.8a7.225,7.225,0,0,1,0,14.449H189.382Z" transform="translate(241.521 77.288)" fill="#24adea"/>
      <path id="Path_10" data-name="Path 10" d="M213.382,100.233V128.1a7.741,7.741,0,0,1-15.482,0V52.241a7.937,7.937,0,0,1,7.741-7.741h25.8c18.062,0,28.383,12.9,28.383,27.867,0,12.9-7.741,25.286-20.642,26.835l19.61,24.254a8.324,8.324,0,0,1,1.548,4.644,7.937,7.937,0,0,1-7.741,7.741,9.521,9.521,0,0,1-6.193-2.58l-24.254-33.027h-8.773Zm0-41.8V86.3h18.062c8.257,0,11.869-6.709,11.869-13.933S239.7,58.433,230.927,58.433Z" transform="translate(341.373 77.288)" fill="#24adea"/>
    </g>
  </g>
</svg>
