<svg id="safewater-logo" xmlns="http://www.w3.org/2000/svg" xmlns:xlink="http://www.w3.org/1999/xlink" width="429.354" height="429.354" viewBox="0 0 429.354 429.354">
  <defs>
    <linearGradient id="linear-gradient" x1="0.196" y1="0.887" x2="0.793" y2="0.126" gradientUnits="objectBoundingBox">
      <stop offset="0" stop-color="#d3ebf4"/>
      <stop offset="1" stop-color="#fbf5f9"/>
    </linearGradient>
    <linearGradient id="linear-gradient-2" x1="0.803" y1="0.185" x2="0.374" y2="0.874" gradientUnits="objectBoundingBox">
      <stop offset="0" stop-color="#0682bf"/>
      <stop offset="1" stop-color="#00468c"/>
    </linearGradient>
    <linearGradient id="linear-gradient-3" x1="80.679" y1="0.094" x2="731.412" y2="-3.331" gradientUnits="objectBoundingBox">
      <stop offset="0" stop-color="#00468c"/>
      <stop offset="1" stop-color="#0682bf"/>
    </linearGradient>
    <linearGradient id="linear-gradient-4" x1="0.868" y1="1.025" x2="0.334" y2="0.259" xlink:href="#linear-gradient-3"/>
    <linearGradient id="linear-gradient-5" x1="0.793" y1="0.839" x2="0.493" y2="0.292" gradientUnits="objectBoundingBox">
      <stop offset="0" stop-color="#25e8e3"/>
      <stop offset="1" stop-color="#24adea"/>
    </linearGradient>
  </defs>
  <g id="Group_4" data-name="Group 4" transform="translate(0 0)">
    <circle id="Ellipse_1" data-name="Ellipse 1" cx="214.677" cy="214.677" r="214.677" fill="url(#linear-gradient)"/>
    <g id="Group_3" data-name="Group 3" transform="translate(16.514 132.109)">
      <path id="Path_11" data-name="Path 11" d="M3.2,41.5v0Z" transform="translate(-3.2 40.552)" fill="#fff"/>
      <path id="Path_12" data-name="Path 12" d="M138.608,98.615c0,1.548,17.546-3.1,17.546-1.548,0-18.578,1.032-69.667-30.963-69.667-40.768,0-48.509,14.965-63.99,25.286C124.674,58.879,128.287,83.133,138.608,98.615Z" transform="translate(238.109 -18.111)" fill="url(#linear-gradient-2)"/>
      <path id="Path_13" data-name="Path 13" d="M3.3,43.18a5.611,5.611,0,0,1,.516-2.58A4.652,4.652,0,0,0,3.3,43.18Z" transform="translate(-2.784 36.808)" fill="url(#linear-gradient-3)"/>
      <path id="Path_14" data-name="Path 14" d="M102.282,149.452C162.66,147.388,191.042,89.074,244.2,67.4c-40.252-9.289-67.087-41.8-141.4-41.8-56.249,0-84.116,42.316-97.534,70.7A29.093,29.093,0,0,0,3.2,102.491C20.746,122.617,52.741,151,102.282,149.452Z" transform="translate(-3.2 -25.6)" fill="url(#linear-gradient-4)"/>
      <path id="Path_15" data-name="Path 15" d="M3.3,40.4v0Z" transform="translate(-2.784 35.975)" fill="#fff"/>
      <path id="Path_16" data-name="Path 16" d="M3.2,43.164v0Z" transform="translate(-3.2 38.888)" fill="#fff"/>
      <path id="Path_17" data-name="Path 17" d="M397.046,55.481c-1.548,11.353-3.612,13.933-7.741,9.8-13.417-13.417-38.188-27.351-87.213-32-3.1-.516-6.193-.516-9.289-1.032A110.4,110.4,0,0,0,244.3,40c-53.153,21.674-81.536,79.988-141.914,82.052C52.841,123.6,20.33,95.217,3.816,75.091v1.032c0,1.032,0,2.064-.516,2.58v3.1c0,109.4,88.761,197.647,197.647,197.647,109.4,0,200.744-82.052,197.647-197.647C398.595,80.251,397.046,57.545,397.046,55.481Z" transform="translate(-2.784 1.285)" fill="url(#linear-gradient-5)"/>
    </g>
    <path id="Path_18" data-name="Path 18" d="M216.437,91.292C197.344,30.914,132.837-6.242,66.267,6.659A158.707,158.707,0,0,0,38.4,14.916C111.163,3.047,180.83,35.042,216.437,91.292Z" transform="translate(159.763 17.079)" fill="rgba(255,255,255,0.73)"/>
  </g>
</svg>
